<svg width="69" height="47" viewBox="0 0 69 47" fill="none" xmlns="http://www.w3.org/2000/svg">
<path d="M45.6202 46.5928H0V0H45.6202V15.9415H43.5054V2.15994H2.11264V44.4328H43.5054V30.5472H45.6202V46.5928Z" fill="white"/>
<path d="M9.31934 18.5117H11.4386V22.6369L14.4713 18.5117H17.014L13.5314 22.8814L17.2911 27.9801H14.6043L11.4386 23.4746V27.9801H9.31934V18.5117Z" fill="white"/>
<path d="M22.8177 26.0283C24.5269 26.0283 25.4136 24.7944 25.4136 23.2457C25.4136 21.5658 24.2697 20.4631 22.8177 20.4631C21.3279 20.4631 20.2239 21.5658 20.2239 23.2457C20.2239 24.8193 21.3789 26.0283 22.8177 26.0283ZM22.8177 18.4956C25.5555 18.4956 27.5995 20.3182 27.5995 23.2457C27.5995 26.0283 25.5555 27.9959 22.8177 27.9959C20.082 27.9959 18.0381 26.171 18.0381 23.2457C18.0381 20.5809 19.9535 18.4956 22.8177 18.4956Z" fill="white"/>
<path d="M36.511 27.9795L32.115 22.2988V27.9795H30.1265V18.5132H31.8224L36.2206 24.2188L36.2162 18.5132H38.2025L38.2069 27.9795H36.511Z" fill="white"/>
<path d="M40.7568 18.5117H48.4382V20.5403H45.6561V27.9801H43.5368V20.5403H40.7568V18.5117Z" fill="white"/>
<path d="M58.717 23.9066C58.717 26.8001 56.917 27.9774 54.9307 27.9774C52.5476 27.9774 50.8916 26.585 50.8916 23.8115V18.5159H53.0109V23.3519C53.0109 24.8258 53.4476 25.9488 54.9307 25.9488C56.2142 25.9488 56.5977 24.9888 56.5977 23.4742V18.5159H58.717V23.9066Z" fill="white"/>
<path d="M63.384 20.5716V22.6682H64.151C64.9601 22.6682 65.5942 22.3693 65.5942 21.5723C65.5942 21.0448 65.3326 20.5694 64.3128 20.5694C63.9936 20.5694 63.8207 20.5581 63.384 20.5716ZM61.2646 27.9774V18.5159C61.7812 18.5159 64.151 18.5159 64.417 18.5159C66.9464 18.5159 67.8465 19.7996 67.8465 21.5452C67.8465 23.3021 66.7868 24.0198 66.2836 24.2779L68.9637 27.9774H66.3944L64.1643 24.6968H63.384V27.9774H61.2646Z" fill="white"/>
</svg>
