<svg width="180" height="46" viewBox="0 0 180 46" fill="none" xmlns="http://www.w3.org/2000/svg">
<path d="M10 20.3354C10 19.1691 10.1605 18.0297 10.4815 16.9172C10.8024 15.7867 11.2699 14.764 11.8839 13.8489C12.5119 12.9158 13.2725 12.1801 14.1656 11.6418C15.0587 11.0856 16.0705 10.8075 17.2009 10.8075C18.5406 10.8075 19.6988 11.2022 20.6757 11.9917C21.6526 12.7633 22.3782 13.7591 22.8527 14.9793L21.0106 16.5673C20.7315 15.7957 20.3757 15.1856 19.943 14.7371C19.5244 14.2885 19.0639 13.9745 18.5615 13.795C18.0731 13.6156 17.5916 13.5259 17.1171 13.5259C16.3356 13.5259 15.6518 13.7322 15.0657 14.1449C14.4796 14.5397 13.9842 15.069 13.5795 15.7329C13.1888 16.3968 12.8887 17.1415 12.6794 17.9669C12.484 18.7923 12.3863 19.6177 12.3863 20.4431C12.3863 21.3582 12.505 22.2464 12.7422 23.1077C12.9794 23.951 13.3074 24.7046 13.726 25.3685C14.1586 26.0145 14.668 26.5259 15.2541 26.9027C15.8402 27.2795 16.4822 27.4679 17.1799 27.4679C17.6544 27.4679 18.1498 27.3602 18.6662 27.1449C19.1825 26.9296 19.657 26.5977 20.0896 26.1491C20.5361 25.6825 20.885 25.0725 21.1362 24.3188L23.083 25.7453C22.7759 26.6963 22.2945 27.5038 21.6386 28.1677C20.9967 28.8316 20.271 29.334 19.4616 29.6749C18.6662 30.0159 17.8777 30.1863 17.0962 30.1863C16.0496 30.1863 15.0936 29.9082 14.2284 29.352C13.3632 28.7778 12.6166 28.0242 11.9886 27.0911C11.3606 26.1401 10.8722 25.0814 10.5233 23.9151C10.1744 22.7308 10 21.5376 10 20.3354Z" fill="#2C2C2C"/>
<path d="M24.9584 30.0248V15.9752H27.261V26.0683L32.8082 15.9482H34.9015V30.0248H32.5988V20.147L27.1145 30.0248H24.9584Z" fill="#2C2C2C"/>
<path d="M42.9489 30.294C41.1208 30.294 39.7323 29.5852 38.7833 28.1677C37.8344 26.7502 37.3599 24.7226 37.3599 22.0849C37.3599 20.3623 37.4715 18.9089 37.6948 17.7246C37.9321 16.5224 38.274 15.5355 38.7205 14.764C39.181 13.9924 39.7462 13.3644 40.4161 12.8799C41.0999 12.3775 41.8883 11.9738 42.7815 11.6687L47.4495 10L47.5332 12.4762L42.9489 14.1449C42.2233 14.432 41.6023 14.8088 41.0859 15.2754C40.5835 15.7419 40.1858 16.352 39.8928 17.1056C39.5997 17.8413 39.4043 18.7743 39.3066 19.9048C39.6974 18.9896 40.2556 18.2719 40.9813 17.7516C41.7069 17.2312 42.5652 16.971 43.556 16.971C44.5747 16.971 45.4539 17.2491 46.1935 17.8054C46.9331 18.3437 47.5053 19.0973 47.91 20.0663C48.3147 21.0352 48.517 22.1477 48.517 23.4037C48.517 24.7674 48.3007 25.9696 47.8681 27.0104C47.4495 28.0331 46.8215 28.8406 45.9842 29.4327C45.1608 30.0069 44.1491 30.294 42.9489 30.294ZM42.9489 27.764C43.9677 27.764 44.7561 27.3782 45.3143 26.6066C45.8865 25.8351 46.1726 24.8123 46.1726 23.5383C46.1726 22.3181 45.8865 21.3223 45.3143 20.5507C44.7561 19.7612 43.9677 19.3665 42.9489 19.3665C42.3489 19.3665 41.8046 19.5369 41.3162 19.8778C40.8278 20.2008 40.444 20.6763 40.1649 21.3043C39.8858 21.9144 39.7462 22.6591 39.7462 23.5383C39.7462 24.3637 39.8718 25.0994 40.123 25.7453C40.3742 26.3734 40.737 26.8668 41.2115 27.2257C41.686 27.5845 42.2651 27.764 42.9489 27.764Z" fill="#2C2C2C"/>
<path d="M50.9068 30.0248V10.9151H59.7614V13.5797H53.2513V30.0248H50.9068Z" fill="#2C2C2C"/>
<path d="M67.8895 30.294C67.0103 30.294 66.2358 30.0248 65.5659 29.4865C64.8961 28.9482 64.3658 28.2484 63.9751 27.3872V35.7578H61.6725V15.9482H63.7029V18.4783C64.1216 17.6349 64.6658 16.962 65.3357 16.4596C66.0055 15.9572 66.7521 15.706 67.5755 15.706C68.3291 15.706 69.0198 15.9034 69.6478 16.2981C70.2758 16.6749 70.8201 17.2043 71.2806 17.8861C71.7411 18.568 72.097 19.3485 72.3481 20.2277C72.6133 21.089 72.7459 22.0041 72.7459 22.9731C72.7459 24.3188 72.5365 25.548 72.1179 26.6605C71.7132 27.7729 71.141 28.6611 70.4014 29.3251C69.6757 29.971 68.8384 30.294 67.8895 30.294ZM67.1359 27.764C67.6243 27.764 68.0639 27.6294 68.4547 27.3602C68.8594 27.0911 69.2013 26.7322 69.4804 26.2836C69.7734 25.8351 69.9967 25.3237 70.1502 24.7495C70.3037 24.1753 70.3805 23.5832 70.3805 22.9731C70.3805 22.3271 70.2967 21.717 70.1293 21.1429C69.9618 20.5687 69.7176 20.0663 69.3966 19.6356C69.0896 19.205 68.7268 18.864 68.3081 18.6128C67.9034 18.3616 67.4569 18.236 66.9684 18.236C66.6754 18.236 66.3684 18.3078 66.0474 18.4513C65.7264 18.5949 65.4264 18.7923 65.1473 19.0435C64.8682 19.2947 64.624 19.5908 64.4146 19.9317C64.2053 20.2726 64.0588 20.6315 63.9751 21.0083V24.6957C64.1704 25.2698 64.4286 25.7902 64.7496 26.2567C65.0705 26.7053 65.4403 27.0732 65.859 27.3602C66.2777 27.6294 66.7033 27.764 67.1359 27.764Z" fill="#2C2C2C"/>
<path d="M75.935 36C75.6838 36 75.4187 35.9551 75.1396 35.8654C74.8605 35.7757 74.5674 35.6411 74.2604 35.4617L74.8465 33.2547C75.014 33.3623 75.1744 33.4431 75.328 33.4969C75.4815 33.5507 75.621 33.5776 75.7466 33.5776C76.0955 33.5776 76.4095 33.3892 76.6886 33.0124C76.9816 32.6536 77.2398 32.1063 77.4631 31.3706L77.8818 29.9172L73.2556 15.9482H75.6629L79.0121 27.0104L81.9846 15.9482H84.2034L79.3889 32.1781C79.1517 33.0214 78.8516 33.7212 78.4888 34.2774C78.1399 34.8337 77.7492 35.2553 77.3166 35.5424C76.884 35.8475 76.4234 36 75.935 36Z" fill="#2C2C2C"/>
<path d="M89.5596 30.2402C88.4432 30.2402 87.5012 29.98 86.7337 29.4596C85.9801 28.9213 85.401 28.1856 84.9963 27.2526L86.8593 26.176C87.0965 26.6963 87.4314 27.109 87.864 27.4141C88.2967 27.7012 88.82 27.8447 89.434 27.8447C90.1736 27.8447 90.7458 27.6473 91.1505 27.2526C91.5552 26.8578 91.7575 26.3375 91.7575 25.6915C91.7575 25.0994 91.5901 24.6239 91.2551 24.265C90.9202 23.8882 90.4457 23.6908 89.8317 23.6729H88.7014V21.7888H89.8736C90.1527 21.7888 90.3969 21.7081 90.6062 21.5466C90.8156 21.3851 90.9761 21.1698 91.0877 20.9006C91.2133 20.6135 91.2761 20.2905 91.2761 19.9317C91.2761 19.3934 91.1156 18.9627 90.7946 18.6398C90.4876 18.2988 90.0201 18.1284 89.3921 18.1284C88.8479 18.1284 88.4013 18.2629 88.0524 18.5321C87.7036 18.7833 87.4175 19.1601 87.1942 19.6625L85.4568 18.4783C85.8196 17.617 86.3499 16.9441 87.0477 16.4596C87.7454 15.9752 88.5618 15.7329 89.4968 15.7329C90.2364 15.7329 90.8923 15.8854 91.4645 16.1905C92.0506 16.4776 92.5041 16.9082 92.8251 17.4824C93.16 18.0386 93.3275 18.7295 93.3275 19.5549C93.3275 20.2008 93.2089 20.8109 92.9716 21.3851C92.7344 21.9413 92.3646 22.354 91.8622 22.6232C92.532 22.8744 93.0344 23.314 93.3694 23.942C93.7182 24.5521 93.8927 25.2788 93.8927 26.1222C93.8927 26.9834 93.7043 27.7281 93.3275 28.3561C92.9647 28.9662 92.4553 29.4327 91.7994 29.7557C91.1435 30.0787 90.3969 30.2402 89.5596 30.2402Z" fill="#2C2C2C"/>
<path d="M95.3663 20.3354C95.3663 19.1691 95.5268 18.0297 95.8478 16.9172C96.1687 15.7867 96.6362 14.764 97.2503 13.8489C97.8782 12.9158 98.6388 12.1801 99.5319 11.6418C100.425 11.0856 101.437 10.8075 102.567 10.8075C103.907 10.8075 105.065 11.2022 106.042 11.9917C107.019 12.7633 107.745 13.7591 108.219 14.9793L106.377 16.5673C106.098 15.7957 105.742 15.1856 105.309 14.7371C104.891 14.2885 104.43 13.9745 103.928 13.795C103.439 13.6156 102.958 13.5259 102.483 13.5259C101.702 13.5259 101.018 13.7322 100.432 14.1449C99.8459 14.5397 99.3505 15.069 98.9458 15.7329C98.5551 16.3968 98.255 17.1415 98.0457 17.9669C97.8503 18.7923 97.7526 19.6177 97.7526 20.4431C97.7526 21.3582 97.8713 22.2464 98.1085 23.1077C98.3457 23.951 98.6737 24.7046 99.0923 25.3685C99.5249 26.0145 100.034 26.5259 100.62 26.9027C101.207 27.2795 101.848 27.4679 102.546 27.4679C103.021 27.4679 103.516 27.3602 104.032 27.1449C104.549 26.9296 105.023 26.5977 105.456 26.1491C105.902 25.6825 106.251 25.0725 106.503 24.3188L108.449 25.7453C108.142 26.6963 107.661 27.5038 107.005 28.1677C106.363 28.8316 105.637 29.334 104.828 29.6749C104.032 30.0159 103.244 30.1863 102.463 30.1863C101.416 30.1863 100.46 29.9082 99.5947 29.352C98.7295 28.7778 97.9829 28.0242 97.3549 27.0911C96.7269 26.1401 96.2385 25.0814 95.8896 23.9151C95.5407 22.7308 95.3663 21.5376 95.3663 20.3354Z" fill="#2C2C2C"/>
<path d="M115.265 30.294C114.414 30.294 113.64 30.1056 112.942 29.7288C112.258 29.334 111.665 28.8047 111.163 28.1408C110.66 27.4589 110.269 26.6874 109.99 25.8261C109.725 24.9469 109.593 24.0138 109.593 23.0269C109.593 21.6991 109.83 20.4879 110.304 19.3934C110.779 18.2809 111.442 17.3927 112.293 16.7288C113.144 16.0469 114.142 15.706 115.286 15.706C116.431 15.706 117.414 16.0469 118.238 16.7288C119.075 17.3927 119.724 18.2719 120.185 19.3665C120.645 20.461 120.875 21.6363 120.875 22.8923C120.875 23.1077 120.868 23.314 120.854 23.5114C120.84 23.6908 120.826 23.8433 120.812 23.9689H112.042C112.084 24.7943 112.258 25.521 112.565 26.1491C112.886 26.7591 113.291 27.2436 113.779 27.6025C114.268 27.9434 114.791 28.1139 115.349 28.1139C115.963 28.1139 116.542 27.9165 117.086 27.5217C117.645 27.127 118.021 26.6066 118.217 25.9607L120.185 26.6874C119.947 27.3692 119.584 27.9883 119.096 28.5445C118.622 29.0828 118.056 29.5135 117.4 29.8364C116.745 30.1415 116.033 30.294 115.265 30.294ZM111.979 22.0041H118.594C118.552 21.1967 118.37 20.4879 118.049 19.8778C117.742 19.2498 117.345 18.7654 116.856 18.4244C116.382 18.0656 115.851 17.8861 115.265 17.8861C114.693 17.8861 114.163 18.0656 113.674 18.4244C113.2 18.7654 112.809 19.2498 112.502 19.8778C112.195 20.4879 112.021 21.1967 111.979 22.0041Z" fill="#2C2C2C"/>
<path d="M128.971 30.294C128.091 30.294 127.317 30.0248 126.647 29.4865C125.977 28.9482 125.447 28.2484 125.056 27.3872V35.7578H122.754V15.9482H124.784V18.4783C125.203 17.6349 125.747 16.962 126.417 16.4596C127.087 15.9572 127.833 15.706 128.657 15.706C129.41 15.706 130.101 15.9034 130.729 16.2981C131.357 16.6749 131.901 17.2043 132.362 17.8861C132.822 18.568 133.178 19.3485 133.429 20.2277C133.694 21.089 133.827 22.0041 133.827 22.9731C133.827 24.3188 133.618 25.548 133.199 26.6605C132.794 27.7729 132.222 28.6611 131.482 29.3251C130.757 29.971 129.919 30.294 128.971 30.294ZM128.217 27.764C128.705 27.764 129.145 27.6294 129.536 27.3602C129.94 27.0911 130.282 26.7322 130.561 26.2836C130.854 25.8351 131.078 25.3237 131.231 24.7495C131.385 24.1753 131.462 23.5832 131.462 22.9731C131.462 22.3271 131.378 21.717 131.21 21.1429C131.043 20.5687 130.799 20.0663 130.478 19.6356C130.171 19.205 129.808 18.864 129.389 18.6128C128.984 18.3616 128.538 18.236 128.049 18.236C127.756 18.236 127.449 18.3078 127.128 18.4513C126.807 18.5949 126.507 18.7923 126.228 19.0435C125.949 19.2947 125.705 19.5908 125.496 19.9317C125.286 20.2726 125.14 20.6315 125.056 21.0083V24.6957C125.251 25.2698 125.51 25.7902 125.831 26.2567C126.152 26.7053 126.521 27.0732 126.94 27.3602C127.359 27.6294 127.784 27.764 128.217 27.764Z" fill="#2C2C2C"/>
<path d="M135.898 30.0248V15.9482H141.759C142.457 15.9482 143.029 16.1187 143.475 16.4596C143.936 16.7826 144.278 17.2043 144.501 17.7246C144.724 18.2271 144.836 18.7833 144.836 19.3934C144.836 20.1649 144.697 20.8468 144.417 21.4389C144.138 22.0311 143.727 22.4796 143.182 22.7847C143.81 23.0179 144.32 23.4306 144.71 24.0228C145.115 24.597 145.318 25.3416 145.318 26.2567C145.318 27.0821 145.164 27.7819 144.857 28.3561C144.55 28.9124 144.11 29.334 143.538 29.6211C142.98 29.8903 142.324 30.0248 141.571 30.0248H135.898ZM138.075 27.9793H141.508C141.801 27.9793 142.066 27.8896 142.303 27.7101C142.554 27.5128 142.75 27.2616 142.889 26.9565C143.029 26.6335 143.099 26.2926 143.099 25.9337C143.099 25.539 143.029 25.1891 142.889 24.8841C142.764 24.579 142.582 24.3368 142.345 24.1573C142.122 23.9779 141.857 23.8882 141.55 23.8882H138.075V27.9793ZM138.075 21.9772H141.173C141.466 21.9772 141.724 21.8875 141.947 21.7081C142.171 21.5107 142.345 21.2505 142.471 20.9275C142.596 20.6046 142.659 20.2636 142.659 19.9048C142.659 19.3844 142.527 18.9358 142.261 18.559C141.996 18.1822 141.647 17.9938 141.215 17.9938H138.075V21.9772Z" fill="#2C2C2C"/>
<path d="M147.509 30.0248V15.9752H149.812V26.0683L155.359 15.9482H157.452V30.0248H155.149V20.147L149.665 30.0248H147.509Z" fill="#2C2C2C"/>
<path d="M165.165 30.294C164.313 30.294 163.539 30.1056 162.841 29.7288C162.157 29.334 161.564 28.7957 161.062 28.1139C160.559 27.432 160.169 26.6515 159.89 25.7723C159.624 24.893 159.492 23.96 159.492 22.9731C159.492 21.6453 159.722 20.4341 160.183 19.3395C160.657 18.245 161.313 17.3658 162.15 16.7019C163.001 16.038 164.006 15.706 165.165 15.706C166.281 15.706 167.251 16.029 168.074 16.6749C168.911 17.303 169.526 18.1463 169.916 19.205L167.676 20.1201C167.425 19.5279 167.069 19.0704 166.609 18.7474C166.162 18.4065 165.667 18.236 165.123 18.236C164.509 18.236 163.95 18.4424 163.448 18.8551C162.96 19.2498 162.569 19.8061 162.276 20.5238C161.997 21.2236 161.857 22.04 161.857 22.9731C161.857 23.8703 162.004 24.6867 162.297 25.4224C162.59 26.1401 162.981 26.7143 163.469 27.1449C163.971 27.5576 164.53 27.764 165.144 27.764C165.52 27.764 165.883 27.6832 166.232 27.5217C166.595 27.3423 166.909 27.109 167.174 26.8219C167.439 26.5169 167.628 26.185 167.739 25.8261L170 26.6874C169.763 27.3872 169.407 28.0062 168.932 28.5445C168.472 29.0828 167.921 29.5135 167.279 29.8364C166.651 30.1415 165.946 30.294 165.165 30.294Z" fill="#2C2C2C"/>
</svg>
