<svg width="160" height="34" viewBox="0 0 160 34" fill="none" xmlns="http://www.w3.org/2000/svg">
<path d="M0 13.5155C0 11.9903 0.160484 10.5003 0.481453 9.04555C0.802421 7.56729 1.26992 6.22981 1.88395 5.03313C2.51193 3.81297 3.27248 2.85093 4.16561 2.147C5.05874 1.4196 6.07049 1.0559 7.20086 1.0559C8.54056 1.0559 9.69883 1.57212 10.6757 2.60455C11.6526 3.61353 12.3782 4.9158 12.8527 6.51139L11.0106 8.58799C10.7315 7.57902 10.3757 6.78123 9.94305 6.19462C9.52439 5.608 9.06387 5.19738 8.56149 4.96273C8.07306 4.72809 7.59161 4.61076 7.11713 4.61076C6.33564 4.61076 5.65184 4.88061 5.06572 5.42029C4.47961 5.93651 3.9842 6.62871 3.5795 7.49689C3.18875 8.36508 2.88872 9.33885 2.67939 10.4182C2.48402 11.4976 2.38633 12.5769 2.38633 13.6563C2.38633 14.853 2.50495 16.0145 2.74219 17.1408C2.97943 18.2436 3.30737 19.2291 3.72603 20.0973C4.15864 20.942 4.668 21.6108 5.25412 22.1035C5.84023 22.5963 6.48217 22.8426 7.17993 22.8426C7.6544 22.8426 8.14981 22.7019 8.66615 22.4203C9.18249 22.1387 9.65697 21.7046 10.0896 21.118C10.5361 20.5079 10.885 19.7101 11.1362 18.7246L13.083 20.5901C12.7759 21.8337 12.2945 22.8896 11.6386 23.7578C10.9967 24.6259 10.271 25.2829 9.4616 25.7288C8.66615 26.1746 7.87769 26.3975 7.0962 26.3975C6.04956 26.3975 5.09363 26.0338 4.22841 25.3064C3.36319 24.5556 2.61659 23.57 1.98861 22.3499C1.36063 21.1063 0.872197 19.7219 0.523318 18.1967C0.174439 16.648 0 15.0876 0 13.5155Z" fill="white"/>
<path d="M14.9584 26.1863V7.81366H17.261V21.0124L22.8082 7.77847H24.9015V26.1863H22.5988V13.2692L17.1145 26.1863H14.9584Z" fill="white"/>
<path d="M32.9489 26.5383C31.1208 26.5383 29.7323 25.6115 28.7833 23.7578C27.8344 21.9041 27.3599 19.2526 27.3599 15.8033C27.3599 13.5507 27.4715 11.6501 27.6948 10.1014C27.9321 8.52933 28.274 7.23878 28.7205 6.22981C29.181 5.22084 29.7462 4.39959 30.4161 3.76604C31.0999 3.10904 31.8883 2.58109 32.7815 2.18219L37.4495 0L37.5332 3.2381L32.9489 5.42029C32.2233 5.79572 31.6023 6.28847 31.0859 6.89855C30.5835 7.50863 30.1858 8.30642 29.8928 9.29192C29.5997 10.254 29.4043 11.4741 29.3066 12.9524C29.6974 11.7557 30.2556 10.8171 30.9813 10.1366C31.7069 9.45618 32.5652 9.11594 33.556 9.11594C34.5747 9.11594 35.4539 9.47964 36.1935 10.207C36.9331 10.911 37.5053 11.8965 37.91 13.1636C38.3147 14.4306 38.517 15.8854 38.517 17.5279C38.517 19.3112 38.3007 20.8834 37.8681 22.2443C37.4495 23.5818 36.8215 24.6377 35.9842 25.412C35.1608 26.1629 34.1491 26.5383 32.9489 26.5383ZM32.9489 23.2298C33.9677 23.2298 34.7561 22.7253 35.3143 21.7164C35.8865 20.7074 36.1726 19.3699 36.1726 17.7039C36.1726 16.1083 35.8865 14.8061 35.3143 13.7971C34.7561 12.7647 33.9677 12.2484 32.9489 12.2484C32.3489 12.2484 31.8046 12.4714 31.3162 12.9172C30.8278 13.3395 30.444 13.9614 30.1649 14.7826C29.8858 15.5804 29.7462 16.5542 29.7462 17.7039C29.7462 18.7833 29.8718 19.7453 30.123 20.5901C30.3742 21.4113 30.737 22.0566 31.2115 22.5259C31.686 22.9952 32.2651 23.2298 32.9489 23.2298Z" fill="white"/>
<path d="M40.9068 26.1863V1.19669H49.7614V4.68116H43.2513V26.1863H40.9068Z" fill="white"/>
<path d="M57.8895 26.5383C57.0103 26.5383 56.2358 26.1863 55.5659 25.4824C54.8961 24.7785 54.3658 23.8633 53.9751 22.7371V33.6832H51.6725V7.77847H53.7029V11.087C54.1216 9.98413 54.6658 9.10421 55.3357 8.4472C56.0055 7.7902 56.7521 7.4617 57.5755 7.4617C58.3291 7.4617 59.0198 7.71981 59.6478 8.23602C60.2758 8.72878 60.8201 9.42098 61.2806 10.3126C61.7411 11.2043 62.097 12.225 62.3481 13.3747C62.6133 14.501 62.7459 15.6977 62.7459 16.9648C62.7459 18.7246 62.5365 20.332 62.1179 21.7867C61.7132 23.2415 61.141 24.403 60.4014 25.2712C59.6757 26.1159 58.8384 26.5383 57.8895 26.5383ZM57.1359 23.2298C57.6243 23.2298 58.0639 23.0538 58.4547 22.7019C58.8594 22.3499 59.2013 21.8806 59.4804 21.294C59.7734 20.7074 59.9967 20.0386 60.1502 19.2878C60.3037 18.5369 60.3805 17.7626 60.3805 16.9648C60.3805 16.1201 60.2967 15.3223 60.1293 14.5714C59.9618 13.8206 59.7176 13.1636 59.3966 12.6004C59.0896 12.0373 58.7268 11.5914 58.3081 11.2629C57.9034 10.9344 57.4569 10.7702 56.9684 10.7702C56.6754 10.7702 56.3684 10.864 56.0474 11.0518C55.7264 11.2395 55.4264 11.4976 55.1473 11.8261C54.8682 12.1546 54.624 12.5418 54.4146 12.9876C54.2053 13.4334 54.0588 13.9027 53.9751 14.3954V19.2174C54.1704 19.9683 54.4286 20.6487 54.7496 21.2588C55.0705 21.8454 55.4403 22.3264 55.859 22.7019C56.2777 23.0538 56.7033 23.2298 57.1359 23.2298Z" fill="white"/>
<path d="M65.935 34C65.6838 34 65.4187 33.9413 65.1396 33.824C64.8605 33.7067 64.5674 33.5307 64.2604 33.2961L64.8465 30.4099C65.014 30.5507 65.1745 30.6563 65.328 30.7267C65.4815 30.7971 65.621 30.8323 65.7466 30.8323C66.0955 30.8323 66.4095 30.5859 66.6886 30.0932C66.9816 29.6239 67.2398 28.9082 67.4631 27.9462L67.8818 26.0455L63.2556 7.77847H65.6629L69.0121 22.2443L71.9846 7.77847H74.2034L69.3889 29.0021C69.1517 30.1049 68.8516 31.02 68.4888 31.7474C68.1399 32.4748 67.7492 33.0262 67.3166 33.4017C66.884 33.8006 66.4234 34 65.935 34Z" fill="white"/>
<path d="M79.5596 26.4679C78.4432 26.4679 77.5012 26.1277 76.7337 25.4472C75.9801 24.7433 75.401 23.7812 74.9963 22.5611L76.8593 21.1532C77.0965 21.8337 77.4314 22.3734 77.864 22.7723C78.2967 23.1477 78.82 23.3354 79.434 23.3354C80.1736 23.3354 80.7458 23.0773 81.1505 22.5611C81.5552 22.0449 81.7575 21.3644 81.7575 20.5197C81.7575 19.7453 81.5901 19.1235 81.2551 18.6542C80.9202 18.1615 80.4457 17.9034 79.8317 17.8799H78.7014V15.4161H79.8736C80.1527 15.4161 80.3969 15.3106 80.6062 15.0994C80.8156 14.8882 80.9761 14.6066 81.0877 14.2547C81.2133 13.8792 81.2761 13.4569 81.2761 12.9876C81.2761 12.2836 81.1156 11.7205 80.7946 11.2981C80.4876 10.8523 80.0201 10.6294 79.3921 10.6294C78.8479 10.6294 78.4013 10.8054 78.0524 11.1573C77.7036 11.4859 77.4175 11.9786 77.1942 12.6356L75.4568 11.087C75.8196 9.96066 76.3499 9.08074 77.0477 8.4472C77.7454 7.81366 78.5618 7.49689 79.4968 7.49689C80.2364 7.49689 80.8923 7.69634 81.4645 8.09524C82.0506 8.47067 82.5041 9.03382 82.8251 9.78468C83.16 10.5121 83.3275 11.4155 83.3275 12.4948C83.3275 13.3395 83.2089 14.1373 82.9716 14.8882C82.7344 15.6156 82.3646 16.1553 81.8622 16.5072C82.532 16.8357 83.0344 17.4106 83.3694 18.2319C83.7182 19.0297 83.8927 19.98 83.8927 21.0828C83.8927 22.2091 83.7043 23.1829 83.3275 24.0041C82.9647 24.8019 82.4553 25.412 81.7994 25.8344C81.1435 26.2567 80.3969 26.4679 79.5596 26.4679Z" fill="white"/>
<path d="M85.3663 13.5155C85.3663 11.9903 85.5268 10.5003 85.8478 9.04555C86.1687 7.56729 86.6362 6.22981 87.2503 5.03313C87.8782 3.81297 88.6388 2.85093 89.5319 2.147C90.425 1.4196 91.4368 1.0559 92.5672 1.0559C93.9069 1.0559 95.0651 1.57212 96.042 2.60455C97.0189 3.61353 97.7445 4.9158 98.219 6.51139L96.3769 8.58799C96.0978 7.57902 95.742 6.78123 95.3094 6.19462C94.8907 5.608 94.4302 5.19738 93.9278 4.96273C93.4394 4.72809 92.9579 4.61076 92.4834 4.61076C91.702 4.61076 91.0181 4.88061 90.432 5.42029C89.8459 5.93651 89.3505 6.62871 88.9458 7.49689C88.5551 8.36508 88.255 9.33885 88.0457 10.4182C87.8503 11.4976 87.7526 12.5769 87.7526 13.6563C87.7526 14.853 87.8713 16.0145 88.1085 17.1408C88.3457 18.2436 88.6737 19.2291 89.0923 20.0973C89.5249 20.942 90.0343 21.6108 90.6204 22.1035C91.2065 22.5963 91.8485 22.8426 92.5462 22.8426C93.0207 22.8426 93.5161 22.7019 94.0325 22.4203C94.5488 22.1387 95.0233 21.7046 95.4559 21.118C95.9025 20.5079 96.2513 19.7101 96.5025 18.7246L98.4493 20.5901C98.1423 21.8337 97.6608 22.8896 97.0049 23.7578C96.363 24.6259 95.6373 25.2829 94.8279 25.7288C94.0325 26.1746 93.244 26.3975 92.4625 26.3975C91.4159 26.3975 90.4599 26.0338 89.5947 25.3064C88.7295 24.5556 87.9829 23.57 87.3549 22.3499C86.7269 21.1063 86.2385 19.7219 85.8896 18.1967C85.5407 16.648 85.3663 15.0876 85.3663 13.5155Z" fill="white"/>
<path d="M105.265 26.5383C104.414 26.5383 103.64 26.2919 102.942 25.7992C102.258 25.283 101.665 24.5907 101.163 23.7226C100.66 22.8309 100.269 21.8219 99.9903 20.6957C99.7251 19.5459 99.5926 18.3257 99.5926 17.0352C99.5926 15.2988 99.8298 13.715 100.304 12.2836C100.779 10.8288 101.442 9.66736 102.293 8.79917C103.144 7.90752 104.142 7.4617 105.286 7.4617C106.431 7.4617 107.414 7.90752 108.238 8.79917C109.075 9.66736 109.724 10.8171 110.185 12.2484C110.645 13.6798 110.875 15.2167 110.875 16.8592C110.875 17.1408 110.868 17.4106 110.854 17.6687C110.84 17.9034 110.826 18.1028 110.812 18.2671H102.042C102.084 19.3464 102.258 20.2968 102.565 21.118C102.886 21.9158 103.291 22.5493 103.779 23.0186C104.268 23.4645 104.791 23.6874 105.349 23.6874C105.963 23.6874 106.542 23.4293 107.086 22.913C107.645 22.3968 108.021 21.7164 108.217 20.8716L110.185 21.8219C109.947 22.7136 109.584 23.5231 109.096 24.2505C108.622 24.9545 108.056 25.5176 107.4 25.94C106.745 26.3389 106.033 26.5383 105.265 26.5383ZM101.979 15.6977H108.594C108.552 14.6418 108.37 13.715 108.049 12.9172C107.742 12.0959 107.345 11.4624 106.856 11.0166C106.382 10.5473 105.851 10.3126 105.265 10.3126C104.693 10.3126 104.163 10.5473 103.674 11.0166C103.2 11.4624 102.809 12.0959 102.502 12.9172C102.195 13.715 102.021 14.6418 101.979 15.6977Z" fill="white"/>
<path d="M118.971 26.5383C118.091 26.5383 117.317 26.1863 116.647 25.4824C115.977 24.7785 115.447 23.8633 115.056 22.7371V33.6832H112.754V7.77847H114.784V11.087C115.203 9.98413 115.747 9.10421 116.417 8.4472C117.087 7.7902 117.833 7.4617 118.657 7.4617C119.41 7.4617 120.101 7.71981 120.729 8.23602C121.357 8.72878 121.901 9.42098 122.362 10.3126C122.822 11.2043 123.178 12.225 123.429 13.3747C123.694 14.501 123.827 15.6977 123.827 16.9648C123.827 18.7246 123.618 20.332 123.199 21.7867C122.794 23.2415 122.222 24.403 121.482 25.2712C120.757 26.1159 119.919 26.5383 118.971 26.5383ZM118.217 23.2298C118.705 23.2298 119.145 23.0538 119.536 22.7019C119.94 22.3499 120.282 21.8806 120.561 21.294C120.854 20.7074 121.078 20.0386 121.231 19.2878C121.385 18.5369 121.462 17.7626 121.462 16.9648C121.462 16.1201 121.378 15.3223 121.21 14.5714C121.043 13.8206 120.799 13.1636 120.478 12.6004C120.171 12.0373 119.808 11.5914 119.389 11.2629C118.984 10.9344 118.538 10.7702 118.049 10.7702C117.756 10.7702 117.449 10.864 117.128 11.0518C116.807 11.2395 116.507 11.4976 116.228 11.8261C115.949 12.1546 115.705 12.5418 115.496 12.9876C115.286 13.4334 115.14 13.9027 115.056 14.3954V19.2174C115.251 19.9683 115.51 20.6487 115.831 21.2588C116.152 21.8454 116.521 22.3264 116.94 22.7019C117.359 23.0538 117.784 23.2298 118.217 23.2298Z" fill="white"/>
<path d="M125.898 26.1863V7.77847H131.759C132.457 7.77847 133.029 8.00138 133.475 8.4472C133.936 8.86956 134.278 9.42098 134.501 10.1014C134.724 10.7585 134.836 11.4859 134.836 12.2836C134.836 13.2926 134.697 14.1843 134.417 14.9586C134.138 15.7329 133.727 16.3195 133.182 16.7184C133.81 17.0235 134.32 17.5631 134.71 18.3375C135.115 19.0883 135.318 20.0621 135.318 21.2588C135.318 22.3382 135.164 23.2533 134.857 24.0041C134.55 24.7315 134.11 25.283 133.538 25.6584C132.98 26.0103 132.324 26.1863 131.571 26.1863H125.898ZM128.075 23.5114H131.508C131.801 23.5114 132.066 23.3941 132.303 23.1594C132.554 22.9013 132.75 22.5728 132.889 22.1739C133.029 21.7516 133.099 21.3057 133.099 20.8364C133.099 20.3202 133.029 19.8627 132.889 19.4638C132.764 19.0649 132.582 18.7481 132.345 18.5135C132.122 18.2788 131.857 18.1615 131.55 18.1615H128.075V23.5114ZM128.075 15.6625H131.173C131.466 15.6625 131.724 15.5452 131.947 15.3106C132.171 15.0524 132.345 14.7122 132.471 14.2899C132.596 13.8675 132.659 13.4217 132.659 12.9524C132.659 12.2719 132.527 11.6853 132.261 11.1925C131.996 10.6998 131.647 10.4534 131.215 10.4534H128.075V15.6625Z" fill="white"/>
<path d="M137.509 26.1863V7.81366H139.812V21.0124L145.359 7.77847H147.452V26.1863H145.149V13.2692L139.665 26.1863H137.509Z" fill="white"/>
<path d="M155.165 26.5383C154.313 26.5383 153.539 26.2919 152.841 25.7992C152.157 25.283 151.564 24.579 151.062 23.6874C150.559 22.7957 150.169 21.775 149.89 20.6253C149.624 19.4755 149.492 18.2553 149.492 16.9648C149.492 15.2284 149.722 13.6446 150.183 12.2132C150.657 10.7819 151.313 9.63216 152.15 8.76397C153.001 7.89579 154.006 7.4617 155.165 7.4617C156.281 7.4617 157.251 7.88406 158.074 8.72878C158.911 9.55003 159.526 10.6529 159.916 12.0373L157.676 13.234C157.425 12.4596 157.069 11.8613 156.609 11.4389C156.162 10.9931 155.667 10.7702 155.123 10.7702C154.509 10.7702 153.95 11.04 153.448 11.5797C152.96 12.0959 152.569 12.8233 152.276 13.7619C151.997 14.677 151.857 15.7446 151.857 16.9648C151.857 18.138 152.004 19.2057 152.297 20.1677C152.59 21.1063 152.981 21.8571 153.469 22.4203C153.971 22.96 154.53 23.2298 155.144 23.2298C155.52 23.2298 155.883 23.1242 156.232 22.913C156.595 22.6784 156.909 22.3734 157.174 21.9979C157.439 21.599 157.628 21.1649 157.739 20.6957L160 21.8219C159.763 22.7371 159.407 23.5466 158.932 24.2505C158.472 24.9545 157.921 25.5176 157.279 25.94C156.651 26.3389 155.946 26.5383 155.165 26.5383Z" fill="white"/>
</svg>
